<?xml version="1.0" standalone="no"?>
<!DOCTYPE svg PUBLIC "-//W3C//DTD SVG 20010904//EN"
 "http://www.w3.org/TR/2001/REC-SVG-20010904/DTD/svg10.dtd">
<svg version="1.0" xmlns="http://www.w3.org/2000/svg"
 width="709.000000pt" height="399.000000pt" viewBox="0 0 709.000000 399.000000"
 preserveAspectRatio="xMidYMid meet">

<g transform="translate(0.000000,399.000000) scale(0.100000,-0.100000)"
fill="#000000" stroke="none">
<path d="M4510 2100 l0 -140 -1545 0 -1545 0 0 -115 0 -115 1545 0 1545 0 0
-135 c0 -106 3 -137 14 -141 7 -3 63 24 122 59 60 36 204 120 319 187 223 129
245 144 230 159 -25 24 -649 381 -666 381 -18 0 -19 -8 -19 -140z"/>
</g>
</svg>
