<?xml version="1.0" encoding="UTF-8"?>
<svg version="1.1" xmlns="http://www.w3.org/2000/svg" width="709" height="399">
<path d="M0 0 C233.97 0 467.94 0 709 0 C709 131.67 709 263.34 709 399 C475.03 399 241.06 399 0 399 C0 267.33 0 135.66 0 0 Z " fill="#F3F3F5" transform="translate(0,0)"/>
<path d="M0 0 C5.62077151 0 5.62077151 0 8.94921875 2.09765625 C10.0777124 2.79387085 10.0777124 2.79387085 11.22900391 3.50415039 C12.04030762 4.01840576 12.85161133 4.53266113 13.6875 5.0625 C15.47901493 6.16902393 17.27206296 7.27306846 19.06640625 8.375 C20.02305176 8.96410156 20.97969727 9.55320313 21.96533203 10.16015625 C27.29550178 13.39170567 32.714146 16.4686613 38.125 19.5625 C48.52971147 25.53099929 58.8122845 31.66887448 69 38 C67.49629441 42.14877807 65.18193056 43.32796435 61.375 45.375 C60.09798404 46.07635393 58.82202297 46.77963054 57.546875 47.484375 C56.82951172 47.87818359 56.11214844 48.27199219 55.37304688 48.67773438 C50.74870792 51.25442365 46.19269678 53.94963474 41.625 56.625 C39.55990684 57.82944595 37.49480246 59.03387267 35.4296875 60.23828125 C31.03196114 62.80710974 26.64267976 65.38975675 22.2578125 67.98046875 C21.16774902 68.62226074 20.07768555 69.26405273 18.95458984 69.92529297 C16.85613394 71.16108942 14.76000741 72.40085189 12.66650391 73.64501953 C11.71952637 74.2017334 10.77254883 74.75844727 9.796875 75.33203125 C8.96510742 75.82421143 8.13333984 76.3163916 7.27636719 76.82348633 C5.14749719 77.92376781 3.36455536 78.63680168 1 79 C0.67 78.67 0.34 78.34 0 78 C0 69.09 0 60.18 0 51 C-101.97 51 -203.94 51 -309 51 C-309 43.41 -309 35.82 -309 28 C-207.03 28 -105.06 28 0 28 C0 18.76 0 9.52 0 0 Z " fill="#010101" transform="translate(451,175)"/>
</svg>
