 <svg id="visual" className=' w-full' viewBox="0 0 960 540" xmlns="http://www.w3.org/2000/svg" xmlns:xlink="http://www.w3.org/1999/xlink" version="1.1">
                        <rect x="0" y="0" fill="none"></rect>
                        <path d="M0 439L22.8 436.2C45.7 433.3 91.3 427.7 137 426.7C182.7 425.7 228.3 429.3 274 436.7C319.7 444 365.3 455 411.2 462.2C457 469.3 503 472.7 548.8 459.7C594.7 446.7 640.3 417.3 686 417C731.7 416.7 777.3 445.3 823 446C868.7 446.7 914.3 419.3 937.2 405.7L960 392L960 541L937.2 541C914.3 541 868.7 541 823 541C777.3 541 731.7 541 686 541C640.3 541 594.7 541 548.8 541C503 541 457 541 411.2 541C365.3 541 319.7 541 274 541C228.3 541 182.7 541 137 541C91.3 541 45.7 541 22.8 541L0 541Z" fill="#000000" opacity="1" stroke-linecap="round" stroke-linejoin="miter"></path>
                    </svg>
