<svg id="visual" viewBox="0 0 960 540" width="960" height="540" xmlns="http://www.w3.org/2000/svg" xmlns:xlink="http://www.w3.org/1999/xlink" version="1.1"><rect x="0" y="0" width="960" height="540" fill="#002233"></rect><path d="M0 439L22.8 435.8C45.7 432.7 91.3 426.3 137 412.7C182.7 399 228.3 378 274 372.7C319.7 367.3 365.3 377.7 411.2 393.2C457 408.7 503 429.3 548.8 433.7C594.7 438 640.3 426 686 405.2C731.7 384.3 777.3 354.7 823 345.5C868.7 336.3 914.3 347.7 937.2 353.3L960 359L960 541L937.2 541C914.3 541 868.7 541 823 541C777.3 541 731.7 541 686 541C640.3 541 594.7 541 548.8 541C503 541 457 541 411.2 541C365.3 541 319.7 541 274 541C228.3 541 182.7 541 137 541C91.3 541 45.7 541 22.8 541L0 541Z" fill="#0066FF" stroke-linecap="round" stroke-linejoin="miter"></path></svg>