<svg id="visual" viewBox="0 0 960 540" width="960" height="540" xmlns="http://www.w3.org/2000/svg" xmlns:xlink="http://www.w3.org/1999/xlink" version="1.1">
    <rect x="0" y="0" width="960" height="540" fill="none"></rect>
    <path d="M0 348L22.8 346.2C45.7 344.3 91.3 340.7 137 358C182.7 375.3 228.3 413.7 274 432.8C319.7 452 365.3 452 411.2 438C457 424 503 396 548.8 387.3C594.7 378.7 640.3 389.3 686 403.8C731.7 418.3 777.3 436.7 823 430.5C868.7 424.3 914.3 393.7 937.2 378.3L960 363L960 541L937.2 541C914.3 541 868.7 541 823 541C777.3 541 731.7 541 686 541C640.3 541 594.7 541 548.8 541C503 541 457 541 411.2 541C365.3 541 319.7 541 274 541C228.3 541 182.7 541 137 541C91.3 541 45.7 541 22.8 541L0 541Z" fill="#ff0000" opacity="0.5" stroke-linecap="round" stroke-linejoin="miter"></path>
</svg>
