<svg id="visual" viewBox="0 0 960 540" width="960" height="540" xmlns="http://www.w3.org/2000/svg" xmlns:xlink="http://www.w3.org/1999/xlink" version="1.1">
    <rect x="0" y="0" width="960" height="540" fill="none"></rect>
    <path d="M0 308L22.8 310.8C45.7 313.7 91.3 319.3 137 332.5C182.7 345.7 228.3 366.3 274 363.7C319.7 361 365.3 335 411.2 323.3C457 311.7 503 314.3 548.8 333.8C594.7 353.3 640.3 389.7 686 394.5C731.7 399.3 777.3 372.7 823 360.2C868.7 347.7 914.3 349.3 937.2 350.2L960 351L960 541L937.2 541C914.3 541 868.7 541 823 541C777.3 541 731.7 541 686 541C640.3 541 594.7 541 548.8 541C503 541 457 541 411.2 541C365.3 541 319.7 541 274 541C228.3 541 182.7 541 137 541C91.3 541 45.7 541 22.8 541L0 541Z" fill="#ff0000" opacity="0.2" stroke-linecap="round" stroke-linejoin="miter"></path>
</svg>
